<svg xmlns="http://www.w3.org/2000/svg" viewBox="0 0 203.33 203.33"><defs><style>.cls-1{fill:#678515;stroke:#678515;}.cls-1,.cls-2{stroke-miterlimit:10;stroke-width:2px;}.cls-2{fill:none;stroke:#fffeec;}</style></defs><title>diamond_ecology</title><g id="Layer_2" data-name="Layer 2"><g id="Icons"><g id="Squares"><g id="eco"><rect class="cls-1" x="30.78" y="30.78" width="141.77" height="141.77" transform="translate(-42.11 101.68) rotate(-45.01)"/><g id="_Ecology_" data-name="&lt;Ecology&gt;"><path class="cls-2" d="M121.52,117.28c-13.82,19.39-44.11,18.89-51.46,25.16-4.21,3.59-4.55,3.38-4.11-2.93.67-9.63-6.81-37.46,7-56.85,16.83-23.61,71.53-23.77,71.53-23.77S138.35,93.67,121.52,117.28Z"/><path class="cls-2" d="M124.59,72.52c-36.35,21.85-57.22,70.57-58.2,72.26"/><line class="cls-2" x1="76.45" y1="125.63" x2="73.42" y2="114.38"/><line class="cls-2" x1="90.3" y1="119.14" x2="76.45" y2="125.63"/><line class="cls-2" x1="84.02" y1="113.3" x2="81.21" y2="102.05"/><line class="cls-2" x1="97.65" y1="107.68" x2="84.02" y2="113.3"/><line class="cls-2" x1="91.81" y1="102.05" x2="89" y2="92.32"/><line class="cls-2" x1="104.36" y1="97.73" x2="91.81" y2="102.05"/><line class="cls-2" x1="100.9" y1="92.32" x2="99.17" y2="83.45"/><line class="cls-2" x1="111.72" y1="90.8" x2="100.9" y2="92.32"/><line class="cls-2" x1="108.69" y1="84.53" x2="107.82" y2="75.01"/><line class="cls-2" x1="117.99" y1="83.23" x2="108.69" y2="84.53"/><line class="cls-2" x1="66.39" y1="144.78" x2="64.44" y2="156.47"/></g></g></g></g></g></svg>