<svg xmlns="http://www.w3.org/2000/svg" viewBox="0 0 203.33 203.33"><defs><style>.cls-1{fill:#a19892;stroke:#a19892;}.cls-1,.cls-2,.cls-3{stroke-miterlimit:10;stroke-width:2px;}.cls-2{fill:none;}.cls-2,.cls-3{stroke:#fffeec;}.cls-3{fill:#fffeec;}</style></defs><title>diamond_robotics</title><g id="Layer_2" data-name="Layer 2"><g id="Icons"><g id="Squares"><g id="robot"><rect class="cls-1" x="30.78" y="30.78" width="141.77" height="141.77" transform="translate(-42.11 101.68) rotate(-45.01)"/><g id="_Robotics_" data-name="&lt;Robotics&gt;"><path class="cls-2" d="M102.8,67.21h0a36.38,36.38,0,0,1,36.38,36.38V140a0,0,0,0,1,0,0H66.39a0,0,0,0,1,0,0V103.62A36.41,36.41,0,0,1,102.8,67.21Z"/><polyline class="cls-2" points="102.58 46.35 102.58 46.35 102.58 46.35"/><path class="cls-3" d="M102.77,48.11a1,1,0,0,1,0,.17c-.15,3.61-.17,7.51,1,10.55a21.94,21.94,0,0,0,6.2,8.38H95.35a21.53,21.53,0,0,0,6.2-8.38c1.22-3.1,1-6.9.82-10.58a.41.41,0,0,1,0-.11l.2-2Z"/><circle class="cls-3" cx="102.58" cy="44.52" r="1.43"/><path class="cls-2" d="M121.4,126.51H84.18a2.45,2.45,0,0,1-2.45-2.45v-7.57A2.45,2.45,0,0,1,84.18,114H121.4a2.45,2.45,0,0,1,2.45,2.45v7.56A2.46,2.46,0,0,1,121.4,126.51Z"/><line class="cls-2" x1="81.73" y1="120.17" x2="123.65" y2="120.17"/><line class="cls-2" x1="102.79" y1="114.04" x2="102.79" y2="126.51"/><line class="cls-2" x1="113.22" y1="114.04" x2="113.22" y2="126.51"/><line class="cls-2" x1="92.16" y1="114.04" x2="92.16" y2="126.51"/><rect class="cls-2" x="81.72" y="82.55" width="15.34" height="15.34" rx="7.67" ry="7.67"/><rect class="cls-2" x="108.31" y="82.55" width="15.34" height="15.34" rx="7.67" ry="7.67"/><rect class="cls-3" x="63.32" y="87.26" width="3.07" height="13.7" rx="1.53" ry="1.53"/><rect class="cls-3" x="139.18" y="87.25" width="3.07" height="13.7" rx="1.53" ry="1.53"/></g></g></g></g></g></svg>