<svg xmlns="http://www.w3.org/2000/svg" viewBox="0 0 203.33 203.33"><defs><style>.cls-1{fill:#c91e90;stroke:#c91e90;}.cls-1,.cls-2{stroke-miterlimit:10;stroke-width:2px;}.cls-2{fill:none;stroke:#fffeec;}</style></defs><title>symbol_biology</title><g id="Layer_2" data-name="Layer 2"><g id="Icons"><g id="Squares"><g id="bio"><rect class="cls-1" x="30.78" y="30.78" width="141.77" height="141.77" transform="translate(-42.11 101.68) rotate(-45.01)"/><g id="_Biology_" data-name="&lt;Biology&gt;"><path class="cls-2" d="M112,72.81a8.87,8.87,0,0,0,1.75,6.09l35.14,46.45c5.86,7.76,0,18.55-10,18.55H64.48c-10.06,0-15.91-10.79-10-18.55L89.63,78.83a8.58,8.58,0,0,0,1.7-5.93L89.41,51.18h24.51Z"/><ellipse class="cls-2" cx="106.56" cy="27.94" rx="1.88" ry="2.18"/><ellipse class="cls-2" cx="98.85" cy="27.94" rx="1.88" ry="2.18"/><ellipse class="cls-2" cx="94.16" cy="45.49" rx="2.19" ry="2.54"/><ellipse class="cls-2" cx="102.81" cy="34" rx="1.88" ry="2.18"/><ellipse class="cls-2" cx="96.97" cy="37.38" rx="2.09" ry="2.42"/><ellipse class="cls-2" cx="103.44" cy="44.16" rx="1.88" ry="2.18"/><ellipse class="cls-2" cx="108.86" cy="37.63" rx="2.29" ry="2.66"/><ellipse class="cls-2" cx="111.67" cy="45.49" rx="1.77" ry="2.06"/><path class="cls-2" d="M69.51,105.42l6.34-1.9a12.41,12.41,0,0,1,6.81-.08l4.7,1.28a13.52,13.52,0,0,0,5.1.41l4.76-.51c3.71-.39,7.45-1.19,10.75.51a11.92,11.92,0,0,0,2.62,1l1.19.3,2.59.16a7.52,7.52,0,0,0,2.7-.34h0a24,24,0,0,1,15.6.35l2.76,1"/></g></g></g></g></g></svg>