<svg xmlns="http://www.w3.org/2000/svg" viewBox="0 0 203.33 203.33"><defs><style>.cls-1{fill:#e3c91e;stroke:#e3c91e;}.cls-1,.cls-2,.cls-3{stroke-miterlimit:10;stroke-width:2px;}.cls-2{fill:none;}.cls-2,.cls-3{stroke:#000;}</style></defs><title>symbol_evolution</title><g id="Layer_2" data-name="Layer 2"><g id="Icons"><g id="Squares"><g id="dino"><rect class="cls-1" x="30.78" y="30.78" width="141.77" height="141.77" transform="translate(-42.11 101.66) rotate(-45)"/><g id="_Evolution_" data-name="&lt;Evolution&gt;"><path class="cls-2" d="M94.86,90.63h0a2.09,2.09,0,0,1,1.83,1.89l.11,1.18,4.83-.43.87,5.17,4.71-3,1,7.72,4.78-4,.51,8.36,5.82-4.41s.79,10.13,1.09,9.91S126,106.3,126,106.3l-.34,10.88,7.45-7.52-1.16,10.16.67,3.76c0,2.24-14-1.67-16.2-1.67l-6-1-15-3,6.13,34.39H59.58L64,112.22A27.32,27.32,0,0,0,61.6,97.77c-1.27-2.77-2-4.92-2-6.29-.12-21.49,15.23-41.8,34-40.71,10.26.59,24.9,8.95,38.34,17.39,13.61,8.55,26,17.23,25.49,24.9-.16,2.73.79,3.63-.56,6.21l-5.76,5.85-8.32-2.53-3.54,4.5-3.1-6.51-3.42,3.75-3.66-5.9L124.41,101l-2.74-4.78-3.59,2.6L115,94.17l-3,2.25-3.37-4.2-3.74,1.63-1.52-3.23-4,.86-.74-1.39a2.29,2.29,0,0,0-3.22-.87l-.79.48h0A.49.49,0,0,0,94.86,90.63Z"/><path class="cls-2" d="M90.61,65l4.33,4.61a12.62,12.62,0,0,0,10.75,3.88l.6-.07a3.32,3.32,0,0,0,2.28-5.25h0a9.64,9.64,0,0,0-7-4l-10.15-.83A1,1,0,0,0,90.61,65Z"/><path class="cls-3" d="M102.36,69.21a4.26,4.26,0,0,1-1.47,2.38,4.29,4.29,0,0,1-.67-2.72,4.35,4.35,0,0,1,1.48-2.39A4.29,4.29,0,0,1,102.36,69.21Z"/></g></g></g></g></g></svg>