<svg xmlns="http://www.w3.org/2000/svg" viewBox="0 0 203.33 203.33"><defs><style>.cls-1{fill:#166187;stroke:#166187;}.cls-1,.cls-2{stroke-miterlimit:10;stroke-width:2px;}.cls-2{fill:none;stroke:#fffeec;}</style></defs><title>symbol_cosmology</title><g id="Layer_2" data-name="Layer 2"><g id="Icons"><g id="Squares"><g id="cosmos"><rect class="cls-1" x="30.78" y="30.78" width="141.77" height="141.77" transform="translate(-42.11 101.68) rotate(-45.01)"/><g id="_Cosmology_" data-name="&lt;Cosmology&gt;"><path class="cls-2" d="M79.88,71.08a59,59,0,0,0-3.6,20.73c0,12.55,3.6,23.75,9.25,31.16H117.9c5.65-7.4,9.25-18.61,9.25-31.15a59,59,0,0,0-3.6-20.73"/><path class="cls-2" d="M79.91,71h43.61s-2.93-13.32-21.7-20.39C83,57.7,79.91,71,79.91,71h43.61"/><rect class="cls-2" x="85.56" y="122.9" width="32.3" height="4.44"/><path class="cls-2" d="M101.8,128.25c-4.12,0-8.13,5.38-6.46,12.32,1.41,5.85,2.63,7.26,4.85,9.49.37.37,1,2.62,1.62,3.23.6-.61,1.24-2.86,1.62-3.23,2.22-2.23,3.43-3.64,4.85-9.49,1.67-6.94-2.34-12.32-6.46-12.32"/><path class="cls-2" d="M79.91,112.41l-7.28,4.89a30,30,0,0,0-10.38,12l-1.92,4.05.18-4.79A43.91,43.91,0,0,1,72.16,100.5l4.12-4.45.36,2.55.49,3.61.88,4.28,1.09,3.83Z"/><path class="cls-2" d="M123.42,112.71l7.28,4.89a30,30,0,0,1,10.38,12.05l1.92,4-.19-4.78a43.84,43.84,0,0,0-11.64-28.11l-4.12-4.45-.44,3.76-.5,3.15-.83,3.78-.81,2.84Z"/><circle class="cls-2" cx="101.71" cy="86.77" r="7.87"/><circle class="cls-2" cx="101.71" cy="86.77" r="10.3"/></g></g></g></g></g></svg>